<svg width="772" height="786" viewBox="0 0 772 786" fill="none" xmlns="http://www.w3.org/2000/svg">
<mask id="path-1-inside-1_2632_8" fill="white">
<rect x="586.043" y="96.3848" width="96.9226" height="32.1285" rx="4.16744"/>
</mask>
<rect x="586.043" y="96.3848" width="96.9226" height="32.1285" rx="4.16744" fill="black" stroke="black" stroke-width="24" mask="url(#path-1-inside-1_2632_8)"/>
<path d="M74.0444 654.044C53.6822 654.044 36.2448 647.559 21.7321 634.59C7.21939 621.621 -0.0246186 606.049 6.2856e-05 587.874V190.858C6.2856e-05 172.662 7.25641 157.079 21.7691 144.11C36.2818 131.14 53.7069 124.667 74.0444 124.689H190.664L259.155 58.5195H481.288L549.78 124.689H666.399C686.762 124.689 704.199 131.173 718.712 144.143C733.224 157.112 740.468 172.684 740.444 190.858V587.874C740.444 606.071 733.187 621.654 718.675 634.623C704.162 647.592 686.737 654.066 666.399 654.044H74.0444Z" fill="black"/>
<path d="M371.888 342.893L423.759 252.36C446.236 258.395 466.184 269.46 483.602 285.555C501.021 301.65 513.677 320.763 521.572 342.893H371.888ZM330.762 380.615L280.004 290.082C293.342 276.753 308.843 266.191 326.509 258.395C344.175 250.599 363.253 246.701 383.744 246.701C386.955 246.701 390.66 246.892 394.86 247.275C399.059 247.657 402.887 248.094 406.345 248.587L330.762 380.615ZM240.36 435.312C238.878 429.277 237.702 423.116 236.832 416.829C235.963 410.542 235.533 404.129 235.543 397.59C235.543 379.735 238.384 362.886 244.065 347.042C249.746 331.199 257.773 316.739 268.147 303.662L342.989 435.312H240.36ZM344.101 542.821C321.623 536.785 301.616 525.72 284.079 509.625C266.542 493.531 253.821 474.418 245.917 452.288H395.23L344.101 542.821ZM383.744 548.479C380.039 548.479 376.27 548.228 372.437 547.725C368.603 547.222 364.962 546.719 361.514 546.216L436.726 414.565L487.485 505.099C474.147 518.427 458.645 528.989 440.98 536.785C423.314 544.581 404.236 548.479 383.744 548.479ZM499.341 491.519L424.5 359.868H527.129C528.611 365.904 529.787 372.065 530.656 378.352C531.526 384.639 531.956 391.052 531.946 397.59C531.946 415.194 528.917 432.043 522.861 448.138C516.804 464.233 508.965 478.693 499.341 491.519Z" fill="white"/>
<path d="M131.972 301.491H150.46C152.761 301.491 154.627 299.625 154.627 297.324V209.56C154.627 207.258 156.493 205.393 158.794 205.393H177.282C179.584 205.393 181.45 207.258 181.45 209.56V301.491C181.45 329.214 161.249 351.955 135.106 355.593C132.905 355.899 131.182 357.738 131.214 359.959L134.449 585.56C134.483 587.884 132.604 589.787 130.279 589.787H105.093C102.815 589.787 100.955 587.957 100.923 585.679L97.6839 359.847C97.6527 357.671 95.9466 355.904 93.791 355.608C67.5937 352.02 47.3359 329.254 47.3359 301.491V209.56C47.3359 207.258 49.2018 205.393 51.5034 205.393H69.9913C72.2929 205.393 74.1587 207.258 74.1587 209.56V297.324C74.1587 299.625 76.0245 301.491 78.3262 301.491H96.814C99.1157 301.491 100.981 299.625 100.981 297.324V209.56C100.981 207.258 102.847 205.393 105.149 205.393H123.637C125.938 205.393 127.804 207.258 127.804 209.56V297.324C127.804 299.625 129.67 301.491 131.972 301.491Z" fill="white"/>
<path d="M599.566 431.862V282.271C599.566 249.734 627.128 208.66 661.895 205.577C664.188 205.374 666.06 207.258 666.06 209.56V585.619C666.06 587.921 664.194 589.787 661.892 589.787H636.981C634.679 589.787 632.813 587.921 632.813 585.619V440.197C632.813 437.895 630.947 436.029 628.646 436.029H603.734C601.432 436.029 599.566 434.163 599.566 431.862Z" fill="white"/>
</svg>
