<svg width="326" height="80" viewBox="0 0 326 80" fill="none" xmlns="http://www.w3.org/2000/svg">
<rect x="59.2075" y="15.56" width="8.23212" height="2.53296" rx="0.686255" stroke="#6B7280" stroke-width="1.26648"/>
<path d="M0.633246 62.3224V62.3215V24.0561C0.633246 22.5002 1.25373 21.1666 2.55164 20.0261C3.85183 18.8835 5.40847 18.3099 7.25655 18.3118H7.25723H18.6873H18.9402L19.1235 18.1377L25.6531 11.9343H46.9191L53.4487 18.1377L53.632 18.3118H53.8849H65.315C67.1659 18.3118 68.724 18.8866 70.0242 20.0293C71.3221 21.1698 71.9411 22.502 71.939 24.0553V24.0561V62.3215C71.939 63.8774 71.3185 65.211 70.0206 66.3516C68.7204 67.4942 67.1637 68.0678 65.3157 68.0658H65.315H7.25723C5.40629 68.0658 3.84824 67.491 2.54801 66.3484C1.25011 65.2078 0.6311 63.8756 0.633246 62.3224Z" stroke="#6B7280" stroke-width="1.26648"/>
<path d="M23.7241 43.9595V43.9585C23.7241 42.3107 23.9907 40.7638 24.5203 39.3134C24.9452 38.1495 25.5096 37.0677 26.2141 36.0666L32.5156 46.9539H24.0647C23.9765 46.5492 23.9029 46.1382 23.8442 45.7208C23.7633 45.1465 23.7232 44.5595 23.7241 43.9595ZM46.9595 33.6505C48.3586 34.9202 49.4262 36.39 50.1669 38.0638H37.5466L41.8241 30.7309C43.7383 31.3073 45.4483 32.279 46.9595 33.6505ZM38.6374 30.13C38.6868 30.1344 38.7357 30.1389 38.7839 30.1434L32.4221 41.0583L28.2414 33.7345C29.409 32.6647 30.7446 31.8032 32.2516 31.15C33.8972 30.4367 35.6794 30.0773 37.6053 30.0773C37.8962 30.0773 38.2395 30.0944 38.6374 30.13ZM51.4864 43.9576V43.9585C51.4864 45.5761 51.2035 47.12 50.6386 48.5943C50.1887 49.7687 49.6363 50.8454 48.9824 51.8263L42.6949 40.9632H51.1458C51.2341 41.3679 51.3076 41.7789 51.3664 42.1962C51.4472 42.7706 51.4874 43.3576 51.4864 43.9576ZM28.2683 54.2652C26.8598 52.9955 25.7868 51.5261 25.0443 49.8533H37.6356L33.4197 57.1852C31.5055 56.6086 29.79 55.6369 28.2683 54.2652ZM37.6053 57.8397C37.2706 57.8397 36.9285 57.8174 36.5787 57.7724C36.536 57.7668 36.4934 57.7613 36.4512 57.7558L42.789 46.8597L46.9691 54.1826C45.8015 55.2524 44.4659 56.1139 42.9589 56.7671C41.3133 57.4804 39.5311 57.8397 37.6053 57.8397Z" stroke="#6B7280" stroke-width="1.26648"/>
<path d="M11.9019 26.8053V33.4028C11.9019 34.4813 12.7762 35.3555 13.8546 35.3555C14.9331 35.3555 15.8074 34.4813 15.8074 33.4028V26.8053C15.8074 26.4263 16.1146 26.1191 16.4936 26.1191C16.8726 26.1191 17.1799 26.4263 17.1799 26.8053V34.7223C17.1799 36.7977 15.8071 38.5467 13.9136 39.1305C13.0597 39.3938 12.2346 40.1602 12.2503 41.2282L12.5421 61.1021C12.5477 61.485 12.2388 61.7984 11.8558 61.7984H11.1965C10.8214 61.7984 10.5157 61.4973 10.5102 61.1223L10.2174 41.1731C10.202 40.1281 9.38768 39.3923 8.54829 39.1398C6.63903 38.5655 5.2514 36.8089 5.2514 34.7223V26.8053C5.2514 26.4263 5.55865 26.1191 5.93766 26.1191C6.31667 26.1191 6.62391 26.4263 6.62391 26.8053V33.4028C6.62391 34.4813 7.49818 35.3555 8.57665 35.3555C9.65511 35.3555 10.5294 34.4813 10.5294 33.4028V26.8053C10.5294 26.4263 10.8366 26.1191 11.2156 26.1191C11.5946 26.1191 11.9019 26.4263 11.9019 26.8053Z" stroke="#6B7280" stroke-width="1.26648"/>
<path d="M59.35 46.3339V32.875C59.35 31.604 59.8629 30.1317 60.7496 28.8728C61.6357 27.6145 62.8468 26.637 64.1771 26.2739C64.2993 26.2406 64.4047 26.27 64.4978 26.3555C64.6003 26.4495 64.681 26.6115 64.681 26.8053V61.1122C64.681 61.4912 64.3738 61.7984 63.9948 61.7984H63.335C62.956 61.7984 62.6488 61.4912 62.6488 61.1122V48.9728C62.6488 47.8944 61.7745 47.0201 60.696 47.0201H60.0363C59.6573 47.0201 59.35 46.7129 59.35 46.3339Z" stroke="#6B7280" stroke-width="1.26648"/>
<path d="M116.087 58.4832H108.773L96.5389 39.9615V58.4832H89.2243V28.4549H96.5389L108.773 47.0622V28.4549H116.087V58.4832ZM144.958 34.6146V58.4832H137.644V55.2322C136.902 56.2874 135.89 57.1429 134.607 57.7988C133.352 58.4261 131.955 58.7398 130.415 58.7398C128.59 58.7398 126.979 58.3406 125.581 57.5421C124.184 56.7151 123.1 55.5317 122.33 53.9918C121.56 52.4518 121.175 50.641 121.175 48.5593V34.6146H128.447V47.5755C128.447 49.1724 128.861 50.4129 129.688 51.2969C130.515 52.1809 131.627 52.6229 133.024 52.6229C134.45 52.6229 135.576 52.1809 136.403 51.2969C137.23 50.4129 137.644 49.1724 137.644 47.5755V34.6146H144.958ZM163.516 52.2807V58.4832H159.794C157.142 58.4832 155.075 57.8415 153.592 56.5583C152.109 55.2465 151.367 53.122 151.367 50.1848V40.6886H148.459V34.6146H151.367V28.7971H158.682V34.6146H163.473V40.6886H158.682V50.2703C158.682 50.9832 158.853 51.4965 159.195 51.8102C159.537 52.1239 160.108 52.2807 160.906 52.2807H163.516ZM174.905 38.5927C175.76 37.2809 176.829 36.2543 178.113 35.5128C179.396 34.7429 180.822 34.3579 182.39 34.3579V42.1002H180.38C178.555 42.1002 177.186 42.4995 176.273 43.2979C175.361 44.0679 174.905 45.4367 174.905 47.4044V58.4832H167.59V34.6146H174.905V38.5927ZM189.565 32.1336C188.282 32.1336 187.227 31.7629 186.4 31.0214C185.601 30.2515 185.202 29.3104 185.202 28.1983C185.202 27.0576 185.601 26.1165 186.4 25.3751C187.227 24.6051 188.282 24.2202 189.565 24.2202C190.82 24.2202 191.846 24.6051 192.645 25.3751C193.472 26.1165 193.885 27.0576 193.885 28.1983C193.885 29.3104 193.472 30.2515 192.645 31.0214C191.846 31.7629 190.82 32.1336 189.565 32.1336ZM193.201 34.6146V58.4832H185.886V34.6146H193.201ZM208.212 58.8254C206.13 58.8254 204.276 58.4689 202.651 57.756C201.025 57.0431 199.742 56.0735 198.801 54.8473C197.86 53.5925 197.333 52.1952 197.218 50.6553H204.448C204.533 51.4823 204.918 52.1524 205.602 52.6657C206.287 53.179 207.128 53.4357 208.126 53.4357C209.039 53.4357 209.737 53.2646 210.222 52.9224C210.735 52.5517 210.992 52.0811 210.992 51.5108C210.992 50.8264 210.636 50.3273 209.923 50.0137C209.21 49.6715 208.055 49.3007 206.458 48.9015C204.747 48.5023 203.321 48.0888 202.18 47.661C201.04 47.2047 200.056 46.5061 199.229 45.565C198.402 44.5955 197.988 43.2979 197.988 41.6725C197.988 40.3037 198.359 39.0632 199.101 37.951C199.871 36.8104 200.983 35.9121 202.437 35.2562C203.92 34.6003 205.674 34.2724 207.698 34.2724C210.693 34.2724 213.045 35.0138 214.756 36.4967C216.496 37.9795 217.494 39.9472 217.751 42.3997H210.992C210.878 41.5727 210.507 40.9168 209.88 40.432C209.281 39.9472 208.483 39.7048 207.485 39.7048C206.629 39.7048 205.973 39.8759 205.517 40.2181C205.061 40.5318 204.832 40.9738 204.832 41.5442C204.832 42.2286 205.189 42.7419 205.902 43.0841C206.643 43.4263 207.784 43.7685 209.324 44.1107C211.092 44.5669 212.532 45.0232 213.644 45.4795C214.756 45.9072 215.726 46.6201 216.553 47.6182C217.408 48.5878 217.85 49.8996 217.879 51.5536C217.879 52.9509 217.48 54.2056 216.681 55.3178C215.911 56.4014 214.785 57.2569 213.302 57.8843C211.848 58.5117 210.151 58.8254 208.212 58.8254ZM244.854 46.1639C244.854 46.8483 244.811 47.5612 244.725 48.3026H228.171C228.285 49.7855 228.756 50.9262 229.583 51.7247C230.438 52.4946 231.479 52.8796 232.706 52.8796C234.531 52.8796 235.8 52.1096 236.513 50.5697H244.298C243.898 52.1382 243.171 53.5497 242.116 54.8045C241.09 56.0592 239.792 57.0431 238.224 57.756C236.655 58.4689 234.901 58.8254 232.962 58.8254C230.624 58.8254 228.542 58.3263 226.717 57.3282C224.892 56.3301 223.466 54.9043 222.44 53.0507C221.413 51.1971 220.9 49.0298 220.9 46.5489C220.9 44.0679 221.399 41.9006 222.397 40.047C223.423 38.1934 224.849 36.7676 226.674 35.7695C228.499 34.7714 230.595 34.2724 232.962 34.2724C235.272 34.2724 237.325 34.7571 239.122 35.7267C240.918 36.6963 242.316 38.0794 243.314 39.8759C244.34 41.6725 244.854 43.7685 244.854 46.1639ZM237.368 44.239C237.368 42.9843 236.94 41.9862 236.085 41.2447C235.229 40.5033 234.16 40.1326 232.877 40.1326C231.65 40.1326 230.61 40.489 229.754 41.2019C228.927 41.9149 228.414 42.9272 228.214 44.239H237.368ZM263.256 34.3579C266.051 34.3579 268.275 35.2704 269.929 37.0955C271.612 38.8921 272.453 41.3731 272.453 44.5384V58.4832H265.181V45.5223C265.181 43.9253 264.768 42.6848 263.941 41.8008C263.114 40.9168 262.001 40.4748 260.604 40.4748C259.207 40.4748 258.095 40.9168 257.268 41.8008C256.441 42.6848 256.027 43.9253 256.027 45.5223V58.4832H248.713V34.6146H256.027V37.7799C256.769 36.7248 257.767 35.8978 259.021 35.299C260.276 34.6716 261.688 34.3579 263.256 34.3579ZM287.246 58.8254C285.164 58.8254 283.31 58.4689 281.685 57.756C280.059 57.0431 278.776 56.0735 277.835 54.8473C276.894 53.5925 276.367 52.1952 276.252 50.6553H283.481C283.567 51.4823 283.952 52.1524 284.636 52.6657C285.321 53.179 286.162 53.4357 287.16 53.4357C288.073 53.4357 288.771 53.2646 289.256 52.9224C289.769 52.5517 290.026 52.0811 290.026 51.5108C290.026 50.8264 289.67 50.3273 288.957 50.0137C288.244 49.6715 287.089 49.3007 285.492 48.9015C283.781 48.5023 282.355 48.0888 281.214 47.661C280.074 47.2047 279.09 46.5061 278.263 45.565C277.436 44.5955 277.022 43.2979 277.022 41.6725C277.022 40.3037 277.393 39.0632 278.135 37.951C278.905 36.8104 280.017 35.9121 281.471 35.2562C282.954 34.6003 284.708 34.2724 286.732 34.2724C289.727 34.2724 292.079 35.0138 293.79 36.4967C295.53 37.9795 296.528 39.9472 296.785 42.3997H290.026C289.912 41.5727 289.541 40.9168 288.914 40.432C288.315 39.9472 287.517 39.7048 286.519 39.7048C285.663 39.7048 285.007 39.8759 284.551 40.2181C284.095 40.5318 283.866 40.9738 283.866 41.5442C283.866 42.2286 284.223 42.7419 284.936 43.0841C285.677 43.4263 286.818 43.7685 288.358 44.1107C290.126 44.5669 291.566 45.0232 292.678 45.4795C293.79 45.9072 294.76 46.6201 295.587 47.6182C296.442 48.5878 296.884 49.8996 296.913 51.5536C296.913 52.9509 296.514 54.2056 295.715 55.3178C294.945 56.4014 293.819 57.2569 292.336 57.8843C290.882 58.5117 289.185 58.8254 287.246 58.8254ZM323.888 46.1639C323.888 46.8483 323.845 47.5612 323.759 48.3026H307.205C307.319 49.7855 307.79 50.9262 308.617 51.7247C309.472 52.4946 310.513 52.8796 311.74 52.8796C313.565 52.8796 314.834 52.1096 315.547 50.5697H323.332C322.932 52.1382 322.205 53.5497 321.15 54.8045C320.124 56.0592 318.826 57.0431 317.258 57.756C315.689 58.4689 313.935 58.8254 311.996 58.8254C309.658 58.8254 307.576 58.3263 305.751 57.3282C303.926 56.3301 302.5 54.9043 301.473 53.0507C300.447 51.1971 299.934 49.0298 299.934 46.5489C299.934 44.0679 300.433 41.9006 301.431 40.047C302.457 38.1934 303.883 36.7676 305.708 35.7695C307.533 34.7714 309.629 34.2724 311.996 34.2724C314.306 34.2724 316.359 34.7571 318.156 35.7267C319.952 36.6963 321.35 38.0794 322.348 39.8759C323.374 41.6725 323.888 43.7685 323.888 46.1639ZM316.402 44.239C316.402 42.9843 315.974 41.9862 315.119 41.2447C314.263 40.5033 313.194 40.1326 311.911 40.1326C310.684 40.1326 309.644 40.489 308.788 41.2019C307.961 41.9149 307.448 42.9272 307.248 44.239H316.402Z" fill="#6B7280"/>
</svg>