<svg width="685" height="685" viewBox="0 0 685 685" fill="none" xmlns="http://www.w3.org/2000/svg">
<mask id="path-1-inside-1_2628_42" fill="white">
<rect x="520" y="84" width="86" height="28" rx="4.16744"/>
</mask>
<rect x="520" y="84" width="86" height="28" rx="4.16744" stroke="black" stroke-width="24" mask="url(#path-1-inside-1_2628_42)"/>
<path d="M6.00006 512.342V512.333V166.333C6.00006 152.353 11.5768 140.368 23.2738 130.101C34.9927 119.815 49.0221 114.649 65.6937 114.667H65.7001H169.178H171.571L173.307 113.019L232.344 57H424.656L483.693 113.019L485.429 114.667H487.822H591.3C607.997 114.667 622.04 119.844 633.759 130.13C645.456 140.397 651.019 152.369 651 166.325V166.333V512.333C651 526.314 645.423 538.299 633.726 548.565C622.007 558.851 607.978 564.018 591.306 564H591.3H65.7001C49.0026 564 34.9602 558.823 23.241 548.537C11.544 538.27 5.98075 526.297 6.00006 512.342Z" stroke="black" stroke-width="12"/>
<path d="M222.198 304.505C225.992 294.113 231.016 284.444 237.275 275.488L293.932 373.375H218.035C217.257 369.782 216.607 366.133 216.086 362.43C215.355 357.239 214.992 351.933 215 346.509V346.5C215 331.6 217.411 317.615 222.198 304.505ZM425.072 253.304C437.618 264.69 447.214 277.854 453.904 292.831H340.426L378.845 226.97C396.07 232.188 411.462 240.952 425.072 253.304ZM349.828 221.476C350.136 221.503 350.441 221.531 350.744 221.559L293.543 319.698L255.996 253.923C266.516 244.316 278.54 236.574 292.101 230.696C306.975 224.249 323.085 221 340.5 221C343.126 221 346.229 221.154 349.828 221.476ZM466 346.491V346.5C466 361.124 463.442 375.079 458.336 388.406C454.32 398.888 449.403 408.508 443.592 417.283L387.068 319.625H462.965C463.743 323.218 464.393 326.867 464.914 330.57C465.645 335.761 466.008 341.067 466 346.491ZM256.084 439.682C243.453 428.297 233.809 415.137 227.104 400.169H340.32L302.455 466.021C285.23 460.801 269.789 452.037 256.084 439.682ZM340.5 472C337.48 472 334.392 471.799 331.233 471.392C330.978 471.359 330.724 471.326 330.47 471.293L387.462 373.311L425.004 439.077C414.484 448.684 402.46 456.426 388.899 462.304C374.025 468.751 357.915 472 340.5 472Z" stroke="black" stroke-width="12"/>
<path d="M117.567 268.75H133.033C138.648 268.75 143.2 264.198 143.2 258.583V185H155V262.75C155 283.721 139.547 300.96 119.459 303.9C114.591 304.612 110.353 308.767 110.434 314.308L113.262 508H95.513L92.6807 314.018C92.6015 308.597 88.414 304.601 83.6404 303.914C63.5037 301.016 48 283.755 48 262.75V185H59.8V258.583C59.8 264.198 64.3521 268.75 69.9674 268.75H85.4326C91.0479 268.75 95.6 264.198 95.6 258.583V185H107.4V258.583C107.4 264.198 111.952 268.75 117.567 268.75Z" stroke="black" stroke-width="12"/>
<path d="M557.333 374H538V246C538 233.456 543.456 218.765 552.682 206.817C561.341 195.602 572.749 187.516 585 185.494V508H567.5V384.167C567.5 378.552 562.948 374 557.333 374Z" stroke="black" stroke-width="12"/>
</svg>
